<mxfile host="app.diagrams.net" modified="2023-05-01T09:23:10.963Z" agent="Mozilla/5.0 (Windows NT 10.0; Win64; x64; rv:109.0) Gecko/20100101 Firefox/112.0" etag="L47PNl7YDUnbDd_FrVQ3" version="21.2.3">
  <diagram name="Sayfa -1" id="slx12zVrkGKdjyQivLbg">
    <mxGraphModel dx="1050" dy="1785" grid="1" gridSize="10" guides="1" tooltips="1" connect="1" arrows="1" fold="1" page="1" pageScale="1" pageWidth="827" pageHeight="1169" math="0" shadow="0">
      <root>
        <mxCell id="0" />
        <mxCell id="1" parent="0" />
        <mxCell id="yI-KKn5nenXHCiCo1QlS-6" value="Home" style="shape=umlFrame;whiteSpace=wrap;html=1;pointerEvents=0;recursiveResize=0;container=1;collapsible=0;width=186;height=20;" vertex="1" parent="1">
          <mxGeometry x="140" y="-410" width="706" height="530" as="geometry" />
        </mxCell>
        <mxCell id="yI-KKn5nenXHCiCo1QlS-7" value="&lt;div&gt;User&lt;/div&gt;&lt;div&gt;&lt;br&gt;&lt;/div&gt;" style="shape=umlActor;verticalLabelPosition=bottom;verticalAlign=top;html=1;outlineConnect=0;" vertex="1" parent="yI-KKn5nenXHCiCo1QlS-6">
          <mxGeometry x="40" y="100" width="30" height="60" as="geometry" />
        </mxCell>
        <mxCell id="yI-KKn5nenXHCiCo1QlS-8" value="" style="html=1;points=[];perimeter=orthogonalPerimeter;fillColor=strokeColor;align=left;verticalAlign=top;spacingLeft=10;" vertex="1" parent="yI-KKn5nenXHCiCo1QlS-6">
          <mxGeometry x="253.5" y="190" width="5" height="130" as="geometry" />
        </mxCell>
        <mxCell id="yI-KKn5nenXHCiCo1QlS-9" value="" style="html=1;verticalAlign=bottom;labelBackgroundColor=none;endArrow=none;endFill=0;rounded=0;dashed=1;" edge="1" parent="yI-KKn5nenXHCiCo1QlS-6" source="yI-KKn5nenXHCiCo1QlS-13">
          <mxGeometry width="160" relative="1" as="geometry">
            <mxPoint x="54.5" y="649" as="sourcePoint" />
            <mxPoint x="54.5" y="190" as="targetPoint" />
            <Array as="points" />
          </mxGeometry>
        </mxCell>
        <mxCell id="yI-KKn5nenXHCiCo1QlS-10" value=":Home(Muscles)" style="shape=umlLifeline;perimeter=lifelinePerimeter;whiteSpace=wrap;html=1;container=1;dropTarget=0;collapsible=0;recursiveResize=0;outlineConnect=0;portConstraint=eastwest;newEdgeStyle={&quot;edgeStyle&quot;:&quot;elbowEdgeStyle&quot;,&quot;elbow&quot;:&quot;vertical&quot;,&quot;curved&quot;:0,&quot;rounded&quot;:0};" vertex="1" parent="yI-KKn5nenXHCiCo1QlS-6">
          <mxGeometry x="206" y="100" width="100" height="410" as="geometry" />
        </mxCell>
        <mxCell id="yI-KKn5nenXHCiCo1QlS-11" value="open_HomePage()" style="html=1;verticalAlign=bottom;labelBackgroundColor=none;endArrow=block;endFill=1;rounded=0;" edge="1" parent="yI-KKn5nenXHCiCo1QlS-6" target="yI-KKn5nenXHCiCo1QlS-10">
          <mxGeometry x="0.0025" width="160" relative="1" as="geometry">
            <mxPoint x="56" y="200" as="sourcePoint" />
            <mxPoint x="226" y="200" as="targetPoint" />
            <mxPoint as="offset" />
          </mxGeometry>
        </mxCell>
        <mxCell id="yI-KKn5nenXHCiCo1QlS-12" value="" style="html=1;verticalAlign=bottom;labelBackgroundColor=none;endArrow=none;endFill=0;rounded=0;dashed=1;" edge="1" parent="yI-KKn5nenXHCiCo1QlS-6" target="yI-KKn5nenXHCiCo1QlS-13">
          <mxGeometry width="160" relative="1" as="geometry">
            <mxPoint x="55" y="540" as="sourcePoint" />
            <mxPoint x="68.5" y="200" as="targetPoint" />
          </mxGeometry>
        </mxCell>
        <mxCell id="yI-KKn5nenXHCiCo1QlS-13" value="" style="html=1;points=[];perimeter=orthogonalPerimeter;fillColor=strokeColor;align=left;verticalAlign=top;spacingLeft=10;" vertex="1" parent="yI-KKn5nenXHCiCo1QlS-6">
          <mxGeometry x="52.5" y="190" width="5" height="330" as="geometry" />
        </mxCell>
        <mxCell id="yI-KKn5nenXHCiCo1QlS-14" value="&lt;div&gt;:ABS&lt;/div&gt;&lt;div&gt;(Exercise List)&lt;br&gt;&lt;/div&gt;" style="shape=umlLifeline;perimeter=lifelinePerimeter;whiteSpace=wrap;html=1;container=1;dropTarget=0;collapsible=0;recursiveResize=0;outlineConnect=0;portConstraint=eastwest;newEdgeStyle={&quot;edgeStyle&quot;:&quot;elbowEdgeStyle&quot;,&quot;elbow&quot;:&quot;vertical&quot;,&quot;curved&quot;:0,&quot;rounded&quot;:0};" vertex="1" parent="yI-KKn5nenXHCiCo1QlS-6">
          <mxGeometry x="416" y="100" width="100" height="420" as="geometry" />
        </mxCell>
        <mxCell id="yI-KKn5nenXHCiCo1QlS-15" value="" style="html=1;points=[];perimeter=orthogonalPerimeter;fillColor=strokeColor;align=left;verticalAlign=top;spacingLeft=10;" vertex="1" parent="yI-KKn5nenXHCiCo1QlS-6">
          <mxGeometry x="463.5" y="320" width="5" height="180" as="geometry" />
        </mxCell>
        <mxCell id="yI-KKn5nenXHCiCo1QlS-16" value="" style="html=1;points=[];perimeter=orthogonalPerimeter;fillColor=strokeColor;align=left;verticalAlign=top;spacingLeft=10;" vertex="1" parent="yI-KKn5nenXHCiCo1QlS-6">
          <mxGeometry x="253.5" y="260" width="5" height="10" as="geometry" />
        </mxCell>
        <mxCell id="yI-KKn5nenXHCiCo1QlS-17" value="Choose_A_Muscle()" style="html=1;verticalAlign=bottom;labelBackgroundColor=none;endArrow=block;endFill=1;rounded=0;" edge="1" parent="yI-KKn5nenXHCiCo1QlS-6">
          <mxGeometry x="0.0025" width="160" relative="1" as="geometry">
            <mxPoint x="53.5" y="320" as="sourcePoint" />
            <mxPoint x="253.5" y="320" as="targetPoint" />
            <mxPoint as="offset" />
          </mxGeometry>
        </mxCell>
        <mxCell id="yI-KKn5nenXHCiCo1QlS-18" value="View_Exercises()" style="html=1;verticalAlign=bottom;labelBackgroundColor=none;endArrow=none;endFill=0;rounded=0;entryX=0.5;entryY=0.19;entryDx=0;entryDy=0;entryPerimeter=0;startArrow=block;startFill=1;exitX=2.1;exitY=0.488;exitDx=0;exitDy=0;exitPerimeter=0;" edge="1" parent="yI-KKn5nenXHCiCo1QlS-6" source="yI-KKn5nenXHCiCo1QlS-13">
          <mxGeometry x="0.4632" width="160" relative="1" as="geometry">
            <mxPoint x="256" y="350.5" as="sourcePoint" />
            <mxPoint x="463.5" y="350" as="targetPoint" />
            <mxPoint as="offset" />
          </mxGeometry>
        </mxCell>
        <mxCell id="yI-KKn5nenXHCiCo1QlS-19" value=":AnExercise" style="shape=umlLifeline;perimeter=lifelinePerimeter;whiteSpace=wrap;html=1;container=1;dropTarget=0;collapsible=0;recursiveResize=0;outlineConnect=0;portConstraint=eastwest;newEdgeStyle={&quot;edgeStyle&quot;:&quot;elbowEdgeStyle&quot;,&quot;elbow&quot;:&quot;vertical&quot;,&quot;curved&quot;:0,&quot;rounded&quot;:0};" vertex="1" parent="yI-KKn5nenXHCiCo1QlS-6">
          <mxGeometry x="586" y="100" width="100" height="420" as="geometry" />
        </mxCell>
        <mxCell id="yI-KKn5nenXHCiCo1QlS-20" value="" style="html=1;verticalAlign=bottom;labelBackgroundColor=none;endArrow=block;endFill=1;rounded=0;" edge="1" parent="yI-KKn5nenXHCiCo1QlS-6">
          <mxGeometry x="0.0025" width="160" relative="1" as="geometry">
            <mxPoint x="256" y="320" as="sourcePoint" />
            <mxPoint x="463.5" y="320" as="targetPoint" />
            <mxPoint as="offset" />
          </mxGeometry>
        </mxCell>
      </root>
    </mxGraphModel>
  </diagram>
</mxfile>
